<mxfile host="app.diagrams.net" agent="Mozilla/5.0 (Windows NT 10.0; Win64; x64) AppleWebKit/537.36 (KHTML, like Gecko) Chrome/135.0.0.0 Safari/537.36" version="26.2.9">
  <diagram name="第 1 页" id="Wiu6PWEGh6moNyxm30xm">
    <mxGraphModel dx="1556" dy="896" grid="1" gridSize="10" guides="1" tooltips="1" connect="1" arrows="1" fold="1" page="1" pageScale="1" pageWidth="827" pageHeight="1169" math="0" shadow="0">
      <root>
        <mxCell id="0" />
        <mxCell id="1" parent="0" />
        <mxCell id="8Ei74Y5O49KyygSIkTCr-3" value="" style="edgeStyle=orthogonalEdgeStyle;rounded=0;orthogonalLoop=1;jettySize=auto;html=1;" edge="1" parent="1" source="8Ei74Y5O49KyygSIkTCr-1" target="8Ei74Y5O49KyygSIkTCr-2">
          <mxGeometry relative="1" as="geometry" />
        </mxCell>
        <mxCell id="8Ei74Y5O49KyygSIkTCr-1" value="脚本启动" style="rounded=0;whiteSpace=wrap;html=1;" vertex="1" parent="1">
          <mxGeometry x="320" y="70" width="120" height="60" as="geometry" />
        </mxCell>
        <mxCell id="8Ei74Y5O49KyygSIkTCr-5" value="" style="edgeStyle=orthogonalEdgeStyle;rounded=0;orthogonalLoop=1;jettySize=auto;html=1;" edge="1" parent="1" source="8Ei74Y5O49KyygSIkTCr-2" target="8Ei74Y5O49KyygSIkTCr-4">
          <mxGeometry relative="1" as="geometry" />
        </mxCell>
        <mxCell id="8Ei74Y5O49KyygSIkTCr-2" value="读取配置文件，获取检查的id列表" style="rounded=0;whiteSpace=wrap;html=1;" vertex="1" parent="1">
          <mxGeometry x="320" y="190" width="120" height="60" as="geometry" />
        </mxCell>
        <mxCell id="8Ei74Y5O49KyygSIkTCr-7" value="" style="edgeStyle=orthogonalEdgeStyle;rounded=0;orthogonalLoop=1;jettySize=auto;html=1;" edge="1" parent="1" source="8Ei74Y5O49KyygSIkTCr-4" target="8Ei74Y5O49KyygSIkTCr-6">
          <mxGeometry relative="1" as="geometry" />
        </mxCell>
        <mxCell id="8Ei74Y5O49KyygSIkTCr-4" value="循环id列表，去阿里云接口获取3h内的对应的备份数据" style="rounded=0;whiteSpace=wrap;html=1;" vertex="1" parent="1">
          <mxGeometry x="320" y="290" width="120" height="60" as="geometry" />
        </mxCell>
        <mxCell id="8Ei74Y5O49KyygSIkTCr-6" value="" style="rounded=0;whiteSpace=wrap;html=1;" vertex="1" parent="1">
          <mxGeometry x="320" y="400" width="120" height="60" as="geometry" />
        </mxCell>
      </root>
    </mxGraphModel>
  </diagram>
</mxfile>
